<svg width="456" height="371" viewBox="0 0 456 371" fill="none" xmlns="http://www.w3.org/2000/svg">
<rect width="456" height="371" fill="white"/>
<path d="M183.083 134.812V150.082C148.535 150.082 129.889 150.082 127.146 150.082C125.142 150.082 123.691 150.399 122.794 151.032C121.898 151.665 121.449 152.429 121.449 153.326V178.17C121.449 179.646 121.819 180.622 122.557 181.097C123.348 181.519 124.878 181.73 127.146 181.73C129.889 181.73 141.071 181.73 160.693 181.73C162.75 181.73 164.227 181.413 165.123 180.781C166.02 180.095 166.468 179.225 166.468 178.17V171.049H142.97V159.339H183.321C183.321 167.726 183.321 174.82 183.321 180.622C183.321 183.207 183.031 185.369 182.451 187.11C181.923 188.798 180.947 190.354 179.523 191.778C178.152 193.097 176.622 194.125 174.934 194.864C173.299 195.549 171.216 196.077 168.684 196.446C166.205 196.763 163.145 196.974 159.506 197.079C155.919 197.185 150.697 197.237 143.84 197.237C136.983 197.237 131.761 197.185 128.175 197.079C124.588 196.974 121.555 196.763 119.076 196.446C116.597 196.077 114.566 195.549 112.984 194.864C111.401 194.125 109.951 193.097 108.632 191.778C107.05 190.407 105.968 188.877 105.388 187.189C104.808 185.449 104.518 183.26 104.518 180.622C104.518 174.82 104.518 165.273 104.518 151.981C104.518 146.337 106.206 142.065 109.582 139.164C112.957 136.263 118.1 134.812 125.01 134.812C135.559 134.812 154.917 134.812 183.083 134.812ZM236.175 149.212V197H216.791V149.212H189.495V134.812L262.601 134.812V149.212H236.175Z" fill="#D90708"/>
<path d="M342.841 165.906C344.529 169.124 345.373 173.132 345.373 177.932C345.373 184.631 343.87 189.484 340.863 192.49C337.909 195.497 333.136 197 326.542 197C318.841 197 300.117 197 270.368 197V183.55C301.224 183.55 317.206 183.55 318.314 183.55C319.422 183.55 320.424 183.497 321.321 183.391C322.27 183.286 323.14 183.075 323.931 182.759C324.723 182.389 325.356 181.862 325.83 181.176C326.305 180.49 326.542 179.594 326.542 178.486C326.542 177.22 326.2 176.218 325.514 175.48C324.881 174.688 324.037 174.134 322.982 173.818C321.927 173.449 320.819 173.238 319.659 173.185C318.551 173.08 317.18 173.027 315.545 173.027C314.543 172.974 311.721 172.869 307.079 172.71C299.8 172.447 295.238 172.288 293.391 172.236C291.545 172.13 289.805 172.051 288.17 171.998C286.534 171.893 285.137 171.787 283.976 171.682C278.121 171.365 273.928 169.44 271.396 165.906C269.603 163.269 268.706 159.339 268.706 154.117C268.706 147.682 269.946 142.856 272.425 139.638C274.904 136.421 279.018 134.812 284.767 134.812C292.416 134.812 311.853 134.812 343.078 134.812V148.262C312.222 148.262 296.24 148.262 295.132 148.262C294.077 148.262 293.128 148.315 292.284 148.421C291.44 148.526 290.649 148.764 289.91 149.133C289.172 149.449 288.565 149.95 288.09 150.636C287.668 151.322 287.457 152.218 287.457 153.326C287.457 155.33 288.17 156.649 289.594 157.282C291.018 157.915 292.996 158.231 295.528 158.231C295.528 158.231 296.081 158.231 297.189 158.231C297.928 158.231 298.455 158.231 298.772 158.231C299.721 158.284 302.49 158.39 307.079 158.548C313.409 158.759 317.787 158.917 320.213 159.023C322.692 159.128 324.775 159.234 326.463 159.339C328.151 159.392 329.549 159.471 330.657 159.577C336.459 159.893 340.52 162.003 342.841 165.906Z" fill="black"/>
<path d="M121.286 223.493V226.444C114.61 226.444 111.006 226.444 110.476 226.444C110.089 226.444 109.808 226.506 109.635 226.628C109.462 226.75 109.375 226.898 109.375 227.071V231.873C109.375 232.158 109.446 232.347 109.589 232.438C109.742 232.52 110.038 232.561 110.476 232.561C111.006 232.561 113.167 232.561 116.959 232.561C117.357 232.561 117.642 232.499 117.815 232.377C117.989 232.245 118.075 232.076 118.075 231.873V230.496H113.534V228.233H121.332C121.332 229.854 121.332 231.225 121.332 232.347C121.332 232.846 121.276 233.264 121.164 233.6C121.062 233.927 120.874 234.227 120.598 234.503C120.333 234.757 120.038 234.956 119.711 235.099C119.395 235.231 118.993 235.333 118.504 235.405C118.024 235.466 117.433 235.507 116.73 235.527C116.037 235.547 115.027 235.558 113.702 235.558C112.377 235.558 111.368 235.547 110.675 235.527C109.982 235.507 109.395 235.466 108.916 235.405C108.437 235.333 108.045 235.231 107.739 235.099C107.433 234.956 107.153 234.757 106.898 234.503C106.592 234.237 106.383 233.942 106.271 233.616C106.159 233.279 106.103 232.856 106.103 232.347C106.103 231.225 106.103 229.38 106.103 226.811C106.103 225.721 106.429 224.895 107.081 224.334C107.734 223.774 108.728 223.493 110.063 223.493C112.102 223.493 115.843 223.493 121.286 223.493ZM132.296 228.967C132.673 228.967 133.005 228.86 133.29 228.646C133.576 228.432 133.718 228.121 133.718 227.713C133.718 227.357 133.581 227.066 133.305 226.842C133.03 226.607 132.709 226.49 132.342 226.49H126.394V235.512H122.648V223.493H132.617C133.463 223.493 134.167 223.554 134.727 223.677C135.288 223.799 135.747 224.003 136.104 224.288C136.46 224.564 136.72 224.941 136.883 225.42C137.057 225.899 137.143 226.506 137.143 227.239C137.143 227.973 137.077 228.59 136.945 229.09C136.812 229.589 136.603 229.992 136.318 230.298C136.032 230.603 135.65 230.828 135.171 230.97C134.702 231.113 134.111 231.184 133.397 231.184V231.246L138.305 235.512H134.146L126.914 228.967H132.296ZM151.426 233.463H144.041L142.924 235.512H138.765L145.356 223.493H150.157L156.686 235.512H152.527L151.426 233.463ZM147.726 226.551L145.401 230.879H150.05L147.726 226.551ZM161.151 226.383V235.466H157.619V223.493H163.735L170.953 232.408L171.014 232.561V223.493H174.546V235.466H168.476L161.197 226.49L161.151 226.383ZM179.551 235.512H175.973H175.866V223.493C181.595 223.493 185.494 223.493 187.564 223.493C188.889 223.493 189.873 223.774 190.515 224.334C191.157 224.885 191.478 225.695 191.478 226.765C191.478 226.796 191.478 227.372 191.478 228.493V230.496C191.478 231.628 191.478 232.209 191.478 232.24C191.478 233.31 191.157 234.125 190.515 234.686C189.873 235.236 188.889 235.512 187.564 235.512H179.551ZM179.353 232.668H179.399H187.151C187.518 232.668 187.783 232.606 187.946 232.484C188.119 232.352 188.206 232.183 188.206 231.98V230.97V229.548V228.019V227.071C188.206 226.867 188.119 226.704 187.946 226.582C187.783 226.449 187.518 226.383 187.151 226.383C186.59 226.383 184.006 226.383 179.399 226.383H179.353V232.668ZM209.344 226.276V235.512H205.598V226.276H200.323V223.493H214.451V226.276H209.344ZM215.631 232.408V226.551C215.631 226.062 215.687 225.659 215.799 225.343C215.911 225.017 216.12 224.717 216.426 224.441C216.691 224.176 216.987 223.972 217.313 223.83C217.639 223.687 218.047 223.585 218.536 223.524C219.036 223.463 219.632 223.427 220.325 223.417C221.019 223.396 222.089 223.386 223.536 223.386C224.984 223.386 226.054 223.396 226.747 223.417C227.441 223.427 228.027 223.463 228.506 223.524C228.995 223.585 229.398 223.687 229.714 223.83C230.04 223.972 230.336 224.176 230.601 224.441C230.906 224.717 231.115 225.017 231.228 225.343C231.34 225.659 231.396 226.062 231.396 226.551V228.295C231.396 229.875 231.396 231.246 231.396 232.408C231.396 232.897 231.34 233.31 231.228 233.646C231.115 233.983 230.906 234.288 230.601 234.564C230.336 234.819 230.035 235.017 229.699 235.16C229.372 235.293 228.959 235.394 228.46 235.466C227.971 235.527 227.364 235.568 226.64 235.588C225.917 235.609 224.867 235.619 223.49 235.619C222.114 235.619 221.069 235.609 220.356 235.588C219.642 235.568 219.036 235.527 218.536 235.466C218.037 235.394 217.629 235.293 217.313 235.16C216.997 235.017 216.701 234.819 216.426 234.564C216.12 234.288 215.911 233.983 215.799 233.646C215.687 233.31 215.631 232.897 215.631 232.408ZM219.01 227.071V231.934C219.01 232.189 219.087 232.367 219.24 232.469C219.393 232.561 219.683 232.606 220.111 232.606C220.672 232.606 222.94 232.606 226.916 232.606C227.313 232.606 227.604 232.545 227.787 232.423C227.981 232.29 228.078 232.127 228.078 231.934V230.558V227.071C228.078 226.786 227.996 226.592 227.833 226.49C227.68 226.388 227.39 226.337 226.961 226.337C226.401 226.337 224.117 226.337 220.111 226.337C219.714 226.337 219.428 226.404 219.255 226.536C219.092 226.669 219.01 226.847 219.01 227.071ZM232.714 223.493H236.399V231.506C236.399 231.74 236.496 231.934 236.689 232.087C236.893 232.229 237.204 232.301 237.622 232.301H242.943C243.392 232.301 243.713 232.229 243.906 232.087C244.11 231.934 244.212 231.74 244.212 231.506V223.493H247.897V232.025C247.897 232.566 247.836 233.024 247.714 233.402C247.602 233.779 247.382 234.13 247.056 234.457C246.71 234.773 246.419 235.002 246.185 235.145C245.96 235.277 245.644 235.379 245.237 235.451C244.839 235.522 244.284 235.568 243.57 235.588C242.867 235.609 241.781 235.619 240.313 235.619C238.855 235.619 237.77 235.609 237.056 235.588C236.343 235.568 235.782 235.522 235.374 235.451C234.977 235.379 234.656 235.272 234.411 235.129C234.176 234.987 233.891 234.762 233.555 234.457C233.228 234.13 233.004 233.779 232.882 233.402C232.77 233.024 232.714 232.566 232.714 232.025V223.493ZM258.862 228.967C259.239 228.967 259.571 228.86 259.856 228.646C260.142 228.432 260.284 228.121 260.284 227.713C260.284 227.357 260.147 227.066 259.871 226.842C259.596 226.607 259.275 226.49 258.908 226.49H252.96V235.512H249.214V223.493H259.183C260.029 223.493 260.733 223.554 261.293 223.677C261.854 223.799 262.313 224.003 262.67 224.288C263.026 224.564 263.286 224.941 263.449 225.42C263.623 225.899 263.709 226.506 263.709 227.239C263.709 227.973 263.643 228.59 263.511 229.09C263.378 229.589 263.169 229.992 262.884 230.298C262.598 230.603 262.216 230.828 261.737 230.97C261.268 231.113 260.677 231.184 259.963 231.184V231.246L264.871 235.512H260.712L253.48 228.967H258.862Z" fill="black"/>
<path d="M287.702 229.502C288.028 230.124 288.191 230.899 288.191 231.827C288.191 233.121 287.9 234.059 287.319 234.64C286.748 235.221 285.826 235.512 284.552 235.512C283.063 235.512 279.445 235.512 273.695 235.512V232.912C279.659 232.912 282.747 232.912 282.961 232.912C283.176 232.912 283.369 232.902 283.543 232.882C283.726 232.861 283.894 232.821 284.047 232.759C284.2 232.688 284.322 232.586 284.414 232.454C284.506 232.321 284.552 232.148 284.552 231.934C284.552 231.689 284.485 231.495 284.353 231.353C284.231 231.2 284.068 231.093 283.864 231.032C283.66 230.96 283.446 230.919 283.221 230.909C283.007 230.889 282.742 230.879 282.426 230.879C282.233 230.868 281.687 230.848 280.79 230.817C279.383 230.767 278.502 230.736 278.145 230.726C277.788 230.705 277.452 230.69 277.136 230.68C276.82 230.659 276.55 230.639 276.325 230.619C275.194 230.558 274.383 230.185 273.894 229.502C273.548 228.993 273.374 228.233 273.374 227.224C273.374 225.981 273.614 225.048 274.093 224.426C274.572 223.804 275.367 223.493 276.478 223.493C277.956 223.493 281.713 223.493 287.747 223.493V226.093C281.784 226.093 278.695 226.093 278.481 226.093C278.277 226.093 278.094 226.103 277.931 226.123C277.768 226.144 277.615 226.19 277.472 226.261C277.329 226.322 277.212 226.419 277.12 226.551C277.039 226.684 276.998 226.857 276.998 227.071C276.998 227.459 277.136 227.713 277.411 227.836C277.686 227.958 278.068 228.019 278.558 228.019C278.558 228.019 278.665 228.019 278.879 228.019C279.022 228.019 279.124 228.019 279.185 228.019C279.368 228.029 279.903 228.05 280.79 228.08C282.013 228.121 282.86 228.152 283.328 228.172C283.808 228.193 284.21 228.213 284.536 228.233C284.863 228.244 285.133 228.259 285.347 228.279C286.468 228.34 287.253 228.748 287.702 229.502ZM299.489 231.674H296.324L293.373 229.028H298.389C298.776 229.028 299.117 228.916 299.413 228.692C299.709 228.458 299.856 228.131 299.856 227.713C299.836 227.377 299.683 227.092 299.398 226.857C299.112 226.623 298.791 226.506 298.434 226.506H292.853V235.512H289.107V223.493H298.756C299.591 223.493 300.29 223.554 300.85 223.677C301.411 223.799 301.87 224.003 302.227 224.288C302.593 224.564 302.864 224.941 303.037 225.42C303.21 225.899 303.297 226.506 303.297 227.239C303.297 228.758 303.006 229.88 302.425 230.603C301.854 231.317 300.876 231.674 299.489 231.674ZM304.434 223.493H308.181V235.512H304.434V223.493ZM319.204 228.967C319.581 228.967 319.912 228.86 320.197 228.646C320.483 228.432 320.626 228.121 320.626 227.713C320.626 227.357 320.488 227.066 320.213 226.842C319.938 226.607 319.616 226.49 319.249 226.49H313.301V235.512H309.555V223.493H319.525C320.371 223.493 321.074 223.554 321.635 223.677C322.195 223.799 322.654 224.003 323.011 224.288C323.368 224.564 323.628 224.941 323.791 225.42C323.964 225.899 324.051 226.506 324.051 227.239C324.051 227.973 323.984 228.59 323.852 229.09C323.719 229.589 323.51 229.992 323.225 230.298C322.94 230.603 322.557 230.828 322.078 230.97C321.609 231.113 321.018 231.184 320.304 231.184V231.246L325.213 235.512H321.054L313.821 228.967H319.204ZM326.116 223.493H329.862V235.512H326.116V223.493ZM340.136 226.276V235.512H336.39V226.276H331.115V223.493H345.243V226.276H340.136Z" fill="#D90708"/>
</svg>
