<svg width="266" height="106" viewBox="0 0 266 106" fill="none" xmlns="http://www.w3.org/2000/svg">
<path d="M89.0835 21.8121V37.0822C54.5347 37.0822 35.8889 37.0822 33.1461 37.0822C31.1417 37.0822 29.6912 37.3987 28.7945 38.0316C27.8978 38.6646 27.4495 39.4294 27.4495 40.3261V65.1696C27.4495 66.6465 27.8187 67.6223 28.5571 68.097C29.3483 68.519 30.878 68.73 33.1461 68.73C35.8889 68.73 47.0711 68.73 66.6927 68.73C68.7498 68.73 70.2267 68.4135 71.1234 67.7805C72.0201 67.0948 72.4684 66.2245 72.4684 65.1696V58.0488L48.9699 58.0488V46.3392H89.3208C89.3208 54.7258 89.3208 61.8202 89.3208 67.6223C89.3208 70.2068 89.0307 72.3694 88.4505 74.1101C87.9231 75.798 86.9473 77.354 85.5231 78.7781C84.1517 80.0968 82.6221 81.1253 80.9342 81.8638C79.299 82.5495 77.2156 83.0769 74.6837 83.4462C72.2047 83.7626 69.1454 83.9736 65.5059 84.0791C61.9191 84.1846 56.6973 84.2374 49.8403 84.2374C42.9832 84.2374 37.7614 84.1846 34.1746 84.0791C30.5879 83.9736 27.555 83.7626 25.0759 83.4462C22.5968 83.0769 20.5661 82.5495 18.9837 81.8638C17.4013 81.1253 15.9508 80.0968 14.6321 78.7781C13.0497 77.4067 11.9684 75.8771 11.3882 74.1892C10.808 72.4486 10.5179 70.2596 10.5179 67.6223C10.5179 61.8202 10.5179 52.2731 10.5179 38.9811C10.5179 33.3372 12.2058 29.0648 15.5815 26.1637C18.9573 23.2627 24.1001 21.8121 31.0098 21.8121C41.5591 21.8121 60.917 21.8121 89.0835 21.8121ZM142.175 36.2119V84H122.791V36.2119L95.4946 36.2119V21.8121L168.601 21.8121V36.2119H142.175Z" fill="#D90708"/>
<path d="M248.841 52.9061C250.529 56.1236 251.373 60.1323 251.373 64.9322C251.373 71.631 249.87 76.4837 246.863 79.4902C243.909 82.4967 239.136 84 232.542 84C224.841 84 206.117 84 176.368 84V70.5497C207.224 70.5497 223.206 70.5497 224.314 70.5497C225.422 70.5497 226.424 70.497 227.321 70.3915C228.27 70.286 229.14 70.075 229.931 69.7585C230.723 69.3893 231.356 68.8618 231.83 68.1761C232.305 67.4904 232.542 66.5937 232.542 65.4861C232.542 64.2201 232.2 63.218 231.514 62.4795C230.881 61.6883 230.037 61.1345 228.982 60.818C227.927 60.4488 226.819 60.2378 225.659 60.1851C224.551 60.0796 223.18 60.0268 221.545 60.0268C220.543 59.9741 217.721 59.8686 213.079 59.7103C205.8 59.4466 201.238 59.2884 199.391 59.2356C197.545 59.1301 195.805 59.051 194.17 58.9983C192.534 58.8928 191.137 58.7873 189.976 58.6818C184.121 58.3653 179.928 56.4401 177.396 52.9061C175.603 50.2688 174.706 46.3392 174.706 41.1173C174.706 34.6822 175.946 29.8559 178.425 26.6384C180.904 23.4209 185.018 21.8121 190.767 21.8121C198.416 21.8121 217.853 21.8121 249.078 21.8121V35.2624C218.222 35.2624 202.24 35.2624 201.132 35.2624C200.077 35.2624 199.128 35.3152 198.284 35.4207C197.44 35.5262 196.649 35.7635 195.91 36.1328C195.172 36.4492 194.565 36.9503 194.09 37.636C193.668 38.3217 193.457 39.2184 193.457 40.3261C193.457 42.3304 194.17 43.6491 195.594 44.2821C197.018 44.915 198.996 45.2315 201.528 45.2315C201.528 45.2315 202.081 45.2315 203.189 45.2315C203.928 45.2315 204.455 45.2315 204.772 45.2315C205.721 45.2842 208.49 45.3897 213.079 45.548C219.409 45.759 223.787 45.9172 226.213 46.0227C228.692 46.1282 230.775 46.2337 232.463 46.3392C234.151 46.3919 235.549 46.471 236.657 46.5765C242.459 46.893 246.52 49.0028 248.841 52.9061Z" fill="white"/>
</svg>
